<?xml version="1.0" encoding="UTF-8"?>
<svg id="Layer_2" xmlns="http://www.w3.org/2000/svg" viewBox="0 0 200 200">
  <defs>
    <style>
      .cls-1 {
        fill: #fff;
      }
    </style>
  </defs>
  <g id="Layer_1-2" data-name="Layer_1">
    <path class="cls-1" d="M66.67,100c0-18.41,14.92-33.33,33.33-33.33s33.34,14.92,33.34,33.33-14.92,33.33-33.34,33.33-33.33-14.92-33.33-33.33h0ZM48.65,100c0,28.36,22.99,51.35,51.35,51.35s51.35-22.99,51.35-51.35-22.99-51.35-51.35-51.35-51.35,22.99-51.35,51.35h0ZM141.38,46.62c0,6.63,5.37,12,12,12s12-5.38,12-12-5.37-12-12-12-12,5.37-12,12h0ZM59.59,181.4c-9.75-.44-15.05-2.07-18.57-3.44-4.67-1.82-8-3.98-11.5-7.48-3.5-3.5-5.67-6.83-7.48-11.5-1.37-3.52-3-8.82-3.44-18.57-.48-10.54-.58-13.71-.58-40.41s.1-29.86.58-40.41c.45-9.75,2.07-15.04,3.44-18.57,1.81-4.67,3.98-8,7.48-11.5,3.5-3.5,6.83-5.67,11.5-7.48,3.52-1.37,8.82-3,18.57-3.45,10.54-.48,13.71-.58,40.41-.58s29.86.1,40.41.58c9.75.45,15.04,2.08,18.57,3.45,4.67,1.81,8,3.98,11.5,7.48,3.5,3.5,5.66,6.83,7.48,11.5,1.37,3.52,3,8.82,3.44,18.57.48,10.55.58,13.71.58,40.41s-.1,29.86-.58,40.41c-.45,9.75-2.07,15.05-3.44,18.57-1.82,4.67-3.98,8-7.48,11.5-3.5,3.5-6.83,5.67-11.5,7.48-3.52,1.37-8.82,3-18.57,3.44-10.54.48-13.71.58-40.41.58s-29.86-.1-40.41-.58h0ZM58.77.6c-10.64.48-17.91,2.17-24.27,4.65-6.58,2.55-12.15,5.98-17.71,11.53-5.56,5.56-8.98,11.14-11.53,17.71-2.48,6.36-4.17,13.63-4.65,24.27-.49,10.67-.6,14.07-.6,41.23s.12,30.56.6,41.23c.48,10.64,2.17,17.91,4.65,24.27,2.55,6.58,5.97,12.15,11.53,17.71,5.56,5.56,11.13,8.98,17.71,11.53,6.36,2.47,13.63,4.16,24.27,4.65,10.67.49,14.07.6,41.23.6s30.57-.12,41.23-.6c10.64-.48,17.91-2.17,24.27-4.65,6.57-2.56,12.15-5.97,17.71-11.53,5.56-5.56,8.98-11.14,11.53-17.71,2.47-6.36,4.16-13.63,4.65-24.27.49-10.67.6-14.07.6-41.23s-.11-30.56-.6-41.23c-.48-10.64-2.18-17.91-4.65-24.27-2.56-6.58-5.98-12.15-11.53-17.71-5.56-5.56-11.14-8.98-17.71-11.53-6.36-2.47-13.63-4.16-24.27-4.65-10.67-.49-14.07-.6-41.23-.6s-30.56.12-41.23.6h0Z"/>
  </g>
</svg>