<?xml version="1.0" encoding="UTF-8"?>
<svg id="Layer_2" xmlns="http://www.w3.org/2000/svg" xmlns:xlink="http://www.w3.org/1999/xlink" viewBox="0 0 200 200">
  <defs>
    <style>
      .cls-1 {
        fill: #fff;
      }

      .cls-2 {
        fill: none;
      }

      .cls-3 {
        clip-path: url(#clippath);
      }
    </style>
    <clipPath id="clippath">
      <rect class="cls-2" width="200" height="200"/>
    </clipPath>
  </defs>
  <g id="Layer_1-2" data-name="Layer_1">
    <g class="cls-3">
      <path class="cls-1" d="M116.77,85.96c21.91-23.66,43.78-47.3,65.76-71.04-.29-.01-.42-.03-.54-.03-4.97,0-9.94-.01-14.91.02-.3,0-.67.22-.89.45-6.07,6.52-12.12,13.06-18.16,19.59-11.51,12.44-23.01,24.87-34.52,37.3-1.27,1.37-2.55,2.74-3.87,4.17-.24-.32-.44-.58-.64-.84-14.97-20.02-29.95-40.04-44.91-60.07-.33-.44-.66-.62-1.21-.62-17.5.01-35.01.01-52.52.01h-.89c1.44,1.93,2.78,3.72,4.12,5.51,12.95,17.31,25.89,34.63,38.84,51.93,8.93,11.94,17.85,23.88,26.8,35.8.41.55.32.82-.1,1.26-9.95,10.73-19.89,21.47-29.83,32.21-13.23,14.28-26.45,28.57-39.67,42.85-.16.17-.3.36-.53.64h.88c4.61,0,9.22-.03,13.83.02.87.01,1.43-.26,2.01-.89,12.1-13.1,24.22-26.19,36.33-39.27,7.21-7.78,14.41-15.57,21.62-23.35,1-1.08,2-2.15,3.04-3.28.2.25.35.43.5.63,5.68,7.6,11.37,15.2,17.05,22.8,10.68,14.29,21.37,28.57,32.04,42.86.3.4.61.5,1.07.5,17.53-.01,35.06-.01,52.59-.01.24,0,.47-.02.85-.04-24.76-33.1-49.43-66.08-74.13-99.11ZM163.1,173.37c-6.58,0-13.16,0-19.74.01-.51,0-.81-.16-1.1-.56-20.42-27.32-40.86-54.63-61.29-81.94-13.94-18.64-27.88-37.28-41.82-55.91-1.89-2.53-3.78-5.05-5.67-7.58-.14-.19-.27-.39-.48-.71h.84c7.75,0,15.49,0,23.24-.01.51,0,.8.17,1.1.57,18.24,24.4,36.48,48.79,54.73,73.18,9.88,13.21,19.76,26.42,29.64,39.63,8.16,10.91,16.32,21.83,24.48,32.75.12.16.22.32.4.59h-4.32Z"/>
    </g>
  </g>
</svg>